<svg width="48px" height="24px" viewBox="0 0 48 24" version="1.1" xmlns="http://www.w3.org/2000/svg" xmlns:xlink="http://www.w3.org/1999/xlink">
									<g transform="translate(-317.000000, -400.000000)" fill="#fff" fill-rule="nonzero">
										<path d="M337.736,402.592 L335.624,402.592 L335.624,405.784 L337.736,405.784 L337.736,402.592 Z M335.624,406.48 L335.624,407.176 C335.624,407.32 334.832,407.728 334.088,407.728 L333.824,407.728 L333.824,401.128 L335.72,401.92 L337.544,401.92 L338.408,401.032 L340.232,402.4 C340.136,402.544 339.848,402.688 339.536,402.736 L339.536,406.792 C339.512,406.984 338.648,407.44 338.024,407.44 L337.736,407.44 L337.736,406.48 L335.624,406.48 Z M331.064,402.592 L328.976,402.592 L328.976,405.784 L331.064,405.784 L331.064,402.592 Z M328.976,406.48 L328.976,407.296 C328.976,407.44 328.232,407.824 327.536,407.824 L327.296,407.824 L327.296,401.152 L329.072,401.92 L330.896,401.92 L331.712,401.056 L333.464,402.376 C333.368,402.52 333.08,402.664 332.768,402.736 L332.768,406.864 C332.744,407.056 331.928,407.488 331.352,407.488 L331.064,407.488 L331.064,406.48 L328.976,406.48 Z M334.376,417.952 L336.8,417.952 L337.928,416.464 C337.712,416.512 337.472,416.536 337.208,416.536 L336.824,416.536 L336.824,415.552 L334.376,415.552 L334.376,417.952 Z M329.84,414.856 L332.288,414.856 L332.288,412.552 L329.84,412.552 L329.84,414.856 Z M332.288,409.6 L329.84,409.6 L329.84,411.88 L332.288,411.88 L332.288,409.6 Z M336.824,409.6 L334.376,409.6 L334.376,411.88 L336.824,411.88 L336.824,409.6 Z M336.824,414.856 L336.824,412.552 L334.376,412.552 L334.376,414.856 L336.824,414.856 Z M320.384,406.36 L320.384,413.272 L321.704,413.272 L321.704,406.36 L320.384,406.36 Z M324.584,406.36 L323.24,406.36 L323.24,413.272 L324.584,413.272 L324.584,406.36 Z M338.984,409.744 L338.984,415.984 C338.984,416.056 338.696,416.248 338.216,416.392 C338.6,416.704 339.656,417.592 340.376,418.264 C340.304,418.528 340.064,418.648 339.728,418.648 L334.376,418.648 L334.376,422.536 C334.376,422.656 333.704,423.064 332.624,423.064 L332.288,423.064 L332.288,418.648 L327.08,418.648 C327.848,420.808 326.504,422.272 325.352,421.024 C325.4,420.352 325.352,419.632 325.232,418.888 C323.816,419.608 321.896,420.52 319.352,421.648 C319.256,421.96 319.016,422.176 318.776,422.224 L317.624,419.608 C318.416,419.512 319.832,419.272 321.512,418.984 L321.512,413.968 L320.384,413.968 L320.384,414.664 C320.384,414.856 319.64,415.264 318.872,415.264 L318.632,415.264 L318.632,404.872 L320.504,405.664 L321.512,405.664 L321.512,400.888 L324.272,401.152 C324.248,401.488 324.008,401.728 323.432,401.8 L323.432,405.664 L324.368,405.664 L325.304,404.728 L327.224,406.192 C327.104,406.36 326.768,406.528 326.384,406.6 L326.384,414.256 C326.36,414.4 325.472,414.808 324.872,414.808 L324.584,414.808 L324.584,413.968 L323.432,413.968 L323.432,418.648 L325.112,418.312 C324.92,417.352 324.632,416.44 324.344,415.672 L324.68,415.576 C325.688,416.368 326.36,417.184 326.768,417.952 L332.288,417.952 L332.288,415.552 L329.84,415.552 L329.84,416.248 C329.84,416.416 329.192,416.8 328.16,416.8 L327.8,416.8 L327.8,407.992 L330.104,408.928 L336.752,408.928 L337.784,407.752 L339.848,409.312 C339.68,409.504 339.464,409.672 338.984,409.744 Z M344.72,414.352 L347.12,414.352 L347.12,404.536 L344.72,404.536 L344.72,414.352 Z M349.184,404.92 L349.184,416.392 C349.16,416.56 348.176,417.016 347.456,417.016 L347.12,417.016 L347.12,415.048 L344.72,415.048 L344.72,417.688 C344.72,417.928 343.904,418.432 342.992,418.432 L342.68,418.432 L342.68,402.88 L344.84,403.84 L346.88,403.84 L347.936,402.664 L350.192,404.416 C350.024,404.608 349.664,404.824 349.184,404.92 Z M350.48,416.608 L350.864,416.608 C351.584,419.104 350.744,420.76 349.736,421.36 C349.088,421.768 348.104,421.696 347.84,420.952 C347.6,420.304 348.008,419.752 348.632,419.416 C349.52,419.032 350.432,417.88 350.48,416.608 Z M352.256,416.656 L352.544,416.56 C356.216,418.936 353.936,421.96 352.616,420.304 C352.88,419.128 352.64,417.64 352.256,416.656 Z M354.68,416.392 L354.944,416.224 C359.144,417.688 357.344,420.88 355.88,419.512 C355.928,418.456 355.352,417.16 354.68,416.392 Z M357.296,415.936 L357.536,415.768 C361.832,416.488 360.512,419.704 358.952,418.6 C358.856,417.64 358.064,416.536 357.296,415.936 Z M359.624,404.368 L352.952,404.368 L352.952,406.384 L359.624,406.384 L359.624,404.368 Z M352.952,409.12 L359.624,409.12 L359.624,407.08 L352.952,407.08 L352.952,409.12 Z M362.264,412.936 L364.352,414.688 C364.184,414.88 363.896,415 363.416,415.072 C363.2,419.2 362.672,421.456 361.64,422.296 C360.992,422.752 360.128,422.992 359.072,422.992 C359.072,422.416 359,421.888 358.664,421.6 C358.352,421.288 357.56,421.024 356.696,420.88 L356.72,420.52 C357.536,420.592 359.024,420.688 359.48,420.688 C359.864,420.688 360.056,420.64 360.248,420.472 C360.776,420.04 361.16,418.048 361.352,414.76 L352.952,414.76 L352.952,415.624 C352.952,415.768 352.304,416.248 351.224,416.248 L350.864,416.248 L350.864,402.712 L353.24,403.672 L354.296,403.672 C354.536,402.808 354.752,401.608 354.872,400.744 L358.232,401.32 C358.136,401.632 357.872,401.848 357.344,401.872 C356.768,402.424 355.832,403.12 354.968,403.672 L359.384,403.672 L360.44,402.472 L362.816,404.272 C362.648,404.44 362.312,404.656 361.832,404.752 L361.832,409.912 C361.808,410.056 360.68,410.488 359.96,410.488 L359.624,410.488 L359.624,409.816 L352.952,409.816 L352.952,411.64 L360.752,411.64 L362,410.08 C362,410.08 363.368,411.16 364.232,411.952 C364.184,412.216 363.944,412.336 363.608,412.336 L352.952,412.336 L352.952,414.064 L361.136,414.064 L362.264,412.936 Z" id="蟬鳴"></path>
									</g>
								</svg>