<?xml version="1.0" standalone="no"?>
<!DOCTYPE svg PUBLIC "-//W3C//DTD SVG 20010904//EN"
 "http://www.w3.org/TR/2001/REC-SVG-20010904/DTD/svg10.dtd">
<svg version="1.0" xmlns="http://www.w3.org/2000/svg"
 width="2400.000000pt" height="2400.000000pt" viewBox="0 0 2400.000000 2400.000000"
 preserveAspectRatio="xMidYMid meet">
<metadata>
Created by potrace 1.11, written by Peter Selinger 2001-2013
</metadata>
<g transform="translate(0.000000,2400.000000) scale(0.100000,-0.100000)"
fill="#000000" stroke="none">
<path d="M11618 23995 c-2 -1 -77 -6 -168 -10 -210 -8 -374 -19 -485 -30 -16
-1 -64 -5 -105 -9 -109 -9 -232 -23 -279 -30 -14 -3 -53 -7 -86 -11 -33 -3
-67 -8 -75 -10 -8 -2 -42 -7 -75 -10 -33 -3 -71 -7 -85 -10 -14 -2 -41 -6 -60
-9 -19 -3 -78 -12 -130 -21 -99 -17 -120 -20 -184 -30 -21 -4 -48 -9 -60 -11
-37 -9 -77 -16 -171 -34 -93 -17 -366 -78 -505 -112 -69 -16 -129 -31 -135
-32 -5 -2 -30 -8 -55 -15 -25 -7 -53 -15 -64 -17 -10 -2 -33 -8 -51 -14 -18
-6 -41 -12 -51 -14 -10 -2 -75 -21 -144 -41 -69 -20 -154 -45 -190 -56 -184
-54 -764 -259 -915 -324 -16 -7 -97 -41 -180 -75 -368 -152 -972 -445 -1178
-571 -26 -16 -49 -29 -51 -29 -4 0 -208 -117 -281 -161 -23 -13 -50 -29 -60
-36 -166 -98 -577 -369 -770 -508 -115 -82 -464 -346 -487 -367 -7 -7 -47 -40
-88 -72 -89 -71 -309 -255 -365 -307 -22 -20 -67 -60 -100 -89 -168 -148 -469
-441 -670 -651 -610 -638 -1165 -1367 -1617 -2124 -83 -138 -110 -187 -172
-300 -6 -11 -16 -27 -22 -35 -33 -46 -306 -582 -396 -780 -92 -202 -110 -241
-157 -355 -23 -55 -48 -113 -56 -130 -7 -16 -36 -91 -65 -165 -28 -74 -56
-144 -60 -155 -5 -11 -27 -72 -50 -135 -23 -63 -44 -122 -48 -130 -3 -8 -6
-17 -7 -20 0 -3 -29 -88 -62 -190 -34 -102 -80 -248 -102 -325 -23 -77 -50
-169 -61 -205 -43 -145 -166 -659 -204 -855 -4 -16 -9 -41 -11 -55 -3 -14 -8
-38 -10 -55 -3 -16 -12 -61 -20 -100 -8 -38 -17 -92 -20 -120 -4 -27 -8 -57
-10 -65 -3 -8 -7 -33 -10 -55 -4 -22 -8 -47 -10 -55 -2 -8 -7 -37 -10 -65 -4
-27 -8 -61 -10 -75 -2 -14 -7 -47 -11 -75 -3 -27 -8 -58 -10 -69 -2 -10 -6
-44 -9 -75 -3 -31 -8 -69 -10 -86 -2 -16 -7 -57 -10 -90 -4 -33 -8 -71 -10
-85 -2 -14 -7 -59 -10 -100 -3 -41 -8 -95 -11 -120 -2 -25 -6 -81 -9 -125 -4
-44 -8 -102 -10 -130 -26 -317 -26 -1349 0 -1539 2 -17 7 -76 10 -131 3 -55 8
-116 10 -135 2 -19 6 -69 9 -110 3 -41 8 -93 11 -115 2 -22 7 -62 10 -90 3
-27 8 -63 10 -80 2 -16 6 -52 9 -80 21 -203 107 -716 167 -990 30 -139 59
-267 63 -285 2 -8 14 -55 26 -105 12 -49 40 -155 61 -235 22 -80 42 -152 44
-160 18 -77 95 -322 167 -535 49 -143 90 -264 91 -270 5 -18 77 -205 149 -385
218 -547 494 -1107 800 -1625 163 -277 399 -637 590 -904 92 -128 326 -437
350 -462 7 -8 56 -68 110 -134 53 -66 104 -129 115 -140 10 -11 38 -45 63 -75
38 -47 80 -94 150 -170 8 -8 30 -34 49 -55 183 -214 620 -648 941 -935 46 -41
88 -79 94 -85 6 -5 38 -32 71 -60 33 -27 62 -52 65 -55 3 -4 57 -48 120 -99
63 -51 137 -112 164 -134 27 -23 56 -46 65 -51 9 -6 48 -35 87 -66 204 -162
664 -483 909 -634 61 -38 129 -81 152 -97 23 -16 44 -29 47 -29 3 0 61 -33
128 -73 114 -68 148 -88 298 -171 232 -128 648 -334 898 -445 101 -45 185 -81
188 -81 2 0 23 -9 47 -19 150 -70 525 -210 824 -310 210 -70 481 -155 531
-166 9 -2 73 -20 142 -39 242 -67 760 -185 929 -212 39 -6 66 -12 101 -19 14
-3 39 -7 55 -9 17 -2 71 -11 120 -20 95 -16 349 -53 425 -61 73 -8 133 -16
160 -20 14 -2 52 -6 85 -9 93 -9 176 -17 220 -21 22 -2 90 -7 150 -10 61 -4
121 -8 135 -11 158 -24 1319 -24 1520 0 14 2 76 7 138 10 62 4 121 9 130 11 9
1 61 6 116 10 54 3 107 8 117 10 10 2 44 6 76 10 61 6 280 33 323 40 14 2 48
7 75 10 28 3 73 10 100 15 28 5 68 12 90 15 47 7 65 10 210 35 237 42 477 93
710 150 72 18 135 33 140 34 6 2 30 8 55 15 25 7 53 15 64 17 10 2 33 8 51 14
18 6 41 12 51 14 10 2 75 21 144 41 69 20 154 45 190 56 187 55 764 259 915
324 17 7 77 32 135 55 58 24 123 51 145 61 271 119 303 133 570 265 225 110
430 218 508 265 26 16 49 29 52 29 9 0 319 183 452 266 32 20 72 45 88 55 74
45 470 312 570 384 140 100 416 309 521 394 44 36 100 82 124 101 24 19 60 49
80 66 19 17 49 42 65 56 240 203 457 403 704 649 227 226 366 376 620 664 44
49 264 316 301 365 19 25 37 47 41 50 6 5 331 437 358 477 7 11 58 85 112 164
55 79 104 151 109 159 5 8 20 31 33 50 112 171 337 537 337 547 0 3 8 17 18
31 11 15 34 56 52 92 19 36 39 72 45 80 32 41 321 610 407 800 31 69 68 152
83 185 15 33 45 103 67 155 22 52 46 109 53 125 7 17 36 91 65 165 28 74 56
144 60 155 10 23 74 199 118 325 216 613 437 1516 517 2110 3 25 8 52 10 60 2
8 7 44 10 80 3 36 8 72 10 80 2 8 6 38 10 65 3 28 7 66 10 85 2 19 7 64 10
100 4 36 8 72 10 80 4 14 10 86 20 210 1 25 6 83 10 130 3 47 8 108 10 135 27
342 27 1190 0 1550 -2 28 -7 91 -10 140 -3 50 -8 106 -10 125 -2 19 -6 71 -10
115 -3 44 -8 89 -10 100 -2 11 -7 47 -10 80 -4 33 -8 74 -10 90 -2 17 -7 57
-10 90 -3 33 -8 67 -10 75 -2 8 -6 38 -10 65 -13 103 -27 200 -41 280 -3 17
-8 44 -10 60 -21 131 -64 358 -93 495 -23 104 -50 226 -56 250 -3 13 -18 77
-30 130 -3 13 -49 187 -60 230 -2 8 -11 42 -20 75 -81 301 -286 930 -356 1090
-5 11 -29 72 -53 135 -129 332 -281 670 -451 1005 -111 218 -191 371 -205 390
-4 6 -25 42 -45 80 -131 243 -407 682 -619 985 -76 110 -327 450 -350 477 -15
16 -22 26 -81 103 -28 36 -52 67 -55 70 -3 3 -35 41 -70 85 -67 82 -278 330
-321 376 -13 14 -39 43 -58 65 -173 201 -680 707 -907 903 -21 19 -62 55 -89
80 -64 58 -83 75 -235 200 -69 57 -136 113 -150 125 -14 11 -55 43 -90 71 -36
27 -70 54 -77 60 -7 5 -19 16 -27 22 -56 47 -412 306 -559 406 -177 122 -542
356 -627 403 -25 14 -74 43 -110 64 -450 267 -1049 560 -1575 771 -99 39 -202
80 -230 90 -27 10 -95 34 -150 54 -258 95 -620 210 -880 281 -49 14 -97 27
-105 29 -24 7 -173 45 -195 50 -11 3 -49 12 -84 21 -36 9 -72 17 -80 19 -125
29 -333 73 -374 80 -15 3 -58 12 -96 20 -61 13 -167 32 -226 40 -11 2 -60 10
-110 19 -49 8 -157 25 -240 37 -195 27 -189 26 -265 34 -59 6 -88 9 -175 20
-28 3 -84 9 -222 21 -29 2 -77 6 -105 9 -29 2 -102 7 -163 10 -60 4 -132 9
-160 11 -56 5 -982 14 -987 9z"/>
</g>
</svg>
